<svg xmlns="http://www.w3.org/2000/svg" viewBox="0 0 960 210" font-family="'Malgun Gothic','맑은 고딕','Apple SD Gothic Neo',sans-serif">
  <defs>
    <marker id="ah" markerWidth="9" markerHeight="9" refX="7" refY="3" orient="auto"><path d="M0,0 L7,3 L0,6 Z" fill="#374151"/></marker>
    <marker id="ahg" markerWidth="9" markerHeight="9" refX="7" refY="3" orient="auto"><path d="M0,0 L7,3 L0,6 Z" fill="#9ca3af"/></marker>
    <marker id="ahm" markerWidth="9" markerHeight="9" refX="7" refY="3" orient="auto"><path d="M0,0 L7,3 L0,6 Z" fill="#059669"/></marker>
  </defs>

  <text x="480" y="28" text-anchor="middle" font-size="19" font-weight="bold" fill="#111827">확장 유통 흐름</text>

  <!-- boxes -->
  <rect x="24" y="52" width="176" height="82" rx="10" fill="#eff6ff" stroke="#2563eb" stroke-width="2"/>
  <text x="112" y="86" text-anchor="middle" font-size="16" font-weight="bold" fill="#1e3a8a">개발자</text>
  <text x="112" y="108" text-anchor="middle" font-size="12" fill="#374151">서드파티 · 교사 · 업체</text>

  <rect x="262" y="52" width="176" height="82" rx="10" fill="#fef3c7" stroke="#d97706" stroke-width="2"/>
  <text x="350" y="80" text-anchor="middle" font-size="15" font-weight="bold" fill="#92400e">AI 교육위원회</text>
  <text x="350" y="100" text-anchor="middle" font-size="11" fill="#374151">심의 ① 계획서 ② 콘텐츠</text>

  <rect x="500" y="52" width="176" height="82" rx="10" fill="#ecfdf5" stroke="#059669" stroke-width="2"/>
  <text x="588" y="86" text-anchor="middle" font-size="16" font-weight="bold" fill="#065f46">확장 마켓</text>
  <text x="588" y="108" text-anchor="middle" font-size="12" fill="#374151">게시</text>

  <rect x="738" y="52" width="176" height="82" rx="10" fill="#f5f3ff" stroke="#7c3aed" stroke-width="2"/>
  <text x="826" y="86" text-anchor="middle" font-size="16" font-weight="bold" fill="#5b21b6">학교</text>
  <text x="826" y="108" text-anchor="middle" font-size="12" fill="#374151">도입 · 사용</text>

  <!-- forward arrows -->
  <line x1="200" y1="93" x2="258" y2="93" stroke="#374151" stroke-width="2" marker-end="url(#ah)"/>
  <line x1="438" y1="93" x2="496" y2="93" stroke="#374151" stroke-width="2" marker-end="url(#ah)"/>
  <line x1="676" y1="93" x2="734" y2="93" stroke="#374151" stroke-width="2" marker-end="url(#ah)"/>
  <text x="229" y="85" text-anchor="middle" font-size="11" fill="#374151">신청</text>
  <text x="467" y="85" text-anchor="middle" font-size="11" fill="#374151">통과</text>
  <text x="705" y="85" text-anchor="middle" font-size="11" fill="#374151">도입</text>

  <!-- 보완·반려 (B->A) -->
  <path d="M300,134 C250,172 165,172 122,136" fill="none" stroke="#9ca3af" stroke-width="1.6" stroke-dasharray="5,4" marker-end="url(#ahg)"/>
  <text x="206" y="186" text-anchor="middle" font-size="11" fill="#6b7280">보완·반려</text>

</svg>
