<svg xmlns="http://www.w3.org/2000/svg" viewBox="-36 -36 632 372" font-family="'Pretendard','Malgun Gothic','Segoe UI',sans-serif"><defs></defs><rect x="-36" y="-36" width="632" height="372" fill="#14283e"/>
            <line x1="60" y1="50" x2="530" y2="50" stroke="rgba(255,255,255,.12)" stroke-width="1.5" stroke-dasharray="4 4"/>
            <text x="56" y="54" text-anchor="end" fill="#7e93a9" font-size="12">100%</text>
            <line x1="60" y1="210" x2="530" y2="210" stroke="rgba(255,255,255,.12)" stroke-width="1.5" stroke-dasharray="4 4"/>
            <text x="56" y="214" text-anchor="end" fill="#7e93a9" font-size="12">20%</text>
            <line x1="60" y1="250" x2="530" y2="250" stroke="rgba(255,255,255,.30)" stroke-width="2"/>
            <!-- 전통 -->
            <path class="bar" style="animation-delay:.15s" d="M110,216 q0,-6 6,-6 h78 q6,0 6,6 V250 H110 Z" fill="#41597a"/>
            <text class="barval" style="animation-delay:.75s" x="155" y="198" text-anchor="middle" fill="#9fb3c8" font-size="23" font-weight="800">20%</text>
            <text x="155" y="272" text-anchor="middle" fill="#e9eff6" font-size="16" font-weight="600">전통 수업</text>
            <!-- 완전학습 -->
            <path class="bar" style="animation-delay:.45s" d="M250,116 q0,-6 6,-6 h78 q6,0 6,6 V250 H250 Z" fill="#7691ae"/>
            <text class="barval" style="animation-delay:1.05s" x="295" y="98" text-anchor="middle" fill="#e9eff6" font-size="23" font-weight="800">70%</text>
            <text class="barval" style="animation-delay:1.05s" x="295" y="140" text-anchor="middle" fill="#0f2a44" font-size="16" font-weight="800">+1σ</text>
            <text x="295" y="272" text-anchor="middle" fill="#e9eff6" font-size="16" font-weight="600">완전학습</text>
            <!-- 개인교습 -->
            <path class="bar" style="animation-delay:.75s" d="M390,76 q0,-6 6,-6 h78 q6,0 6,6 V250 H390 Z" fill="#1fc7b1"/>
            <text class="barval" style="animation-delay:1.35s" x="435" y="58" text-anchor="middle" fill="#e9eff6" font-size="23" font-weight="800">90%</text>
            <text class="barval" style="animation-delay:1.35s" x="435" y="100" text-anchor="middle" fill="#0f2a44" font-size="16" font-weight="800">+2σ</text>
            <text x="435" y="272" text-anchor="middle" fill="#e9eff6" font-size="16" font-weight="600">1:1 개인교습</text>
          </svg>