<svg xmlns="http://www.w3.org/2000/svg" viewBox="-36 -36 592 352" font-family="'Pretendard','Malgun Gothic','Segoe UI',sans-serif"><defs><radialGradient id="bg" cx="82%" cy="8%" r="130%"><stop offset="0%" stop-color="#1e4d78"/><stop offset="55%" stop-color="#0f2a44"/><stop offset="100%" stop-color="#081827"/></radialGradient></defs><rect x="-36" y="-36" width="592" height="352" fill="url(#bg)"/>
          <defs>
            <marker id="aR" markerWidth="9" markerHeight="9" refX="6" refY="3" orient="auto"><path d="M0,0 L6,3 L0,6Z" fill="#7ee0d3"/></marker>
            <marker id="aL" markerWidth="9" markerHeight="9" refX="0" refY="3" orient="auto"><path d="M6,0 L0,3 L6,6Z" fill="#7ee0d3"/></marker>
          </defs>
          <line x1="20" y1="220" x2="500" y2="220" stroke="rgba(255,255,255,.28)" stroke-width="1.5"/>
          <g stroke="rgba(255,255,255,.3)" stroke-width="1"><line x1="85" y1="220" x2="85" y2="226"/><line x1="130" y1="220" x2="130" y2="226"/><line x1="175" y1="220" x2="175" y2="226"/><line x1="220" y1="220" x2="220" y2="226"/><line x1="265" y1="220" x2="265" y2="226"/><line x1="310" y1="220" x2="310" y2="226"/><line x1="355" y1="220" x2="355" y2="226"/></g>
          <!-- 전통 수업: 평균 x=175, σ=45px (①페이드인) -->
          <g class="b1">
            <path d="M40,220 C117,220 123,64 175,64 C227,64 233,220 310,220 Z" fill="rgba(147,169,194,.20)" stroke="#93a9c2" stroke-width="2.5"/>
            <line x1="175" y1="64" x2="175" y2="220" stroke="#93a9c2" stroke-width="1.4" stroke-dasharray="4 5"/>
            <text x="170" y="244" text-anchor="end" fill="#c7d5e2" font-size="15">전통 수업</text>
          </g>
          <!-- 1:1 개인교습: 평균 x=265 (②전통 위치에서 +2σ만큼 밀려나며 등장) -->
          <g class="b2">
            <path d="M130,220 C207,220 213,64 265,64 C317,64 323,220 400,220 Z" fill="rgba(31,199,177,.22)" stroke="#1fc7b1" stroke-width="2.5"/>
            <line x1="265" y1="64" x2="265" y2="220" stroke="#1fc7b1" stroke-width="1.4" stroke-dasharray="4 5"/>
            <text x="270" y="244" text-anchor="start" fill="#eafffb" font-size="15" font-weight="700">1:1 개인교습</text>
          </g>
          <!-- ③주석: 2σ 화살표·상위 2% 꼬리 -->
          <g class="bn">
            <path d="M265,199 C280,212 295,218 310,220 L265,220 Z" fill="rgba(244,162,59,.55)"/>
            <line x1="175" y1="40" x2="265" y2="40" stroke="#7ee0d3" stroke-width="2" marker-start="url(#aL)" marker-end="url(#aR)"/>
            <text x="220" y="30" text-anchor="middle" fill="#7ee0d3" font-size="20" font-weight="800">2σ</text>
            <line x1="300" y1="210" x2="410" y2="118" stroke="rgba(244,162,59,.8)" stroke-width="1.2"/>
            <text x="416" y="122" fill="#f4c98a" font-size="13" font-weight="700">상위 2%</text>
          </g>
        </svg>